<svg id="erLdtIkpMTC1" xmlns="http://www.w3.org/2000/svg" xmlns:xlink="http://www.w3.org/1999/xlink" viewBox="0 0 300 300" shape-rendering="geometricPrecision" text-rendering="geometricPrecision" style="background-color:#fbfbfb"><defs><linearGradient id="erLdtIkpMTC3-stroke" x1="0.243972" y1="0.069186" x2="0.655905" y2="0.729996" spreadMethod="pad" gradientUnits="objectBoundingBox" gradientTransform="translate(0 0)"><stop id="erLdtIkpMTC3-stroke-0" offset="0%" stop-color="#8bbccc"/><stop id="erLdtIkpMTC3-stroke-1" offset="100%" stop-color="#8454aa"/></linearGradient><linearGradient id="erLdtIkpMTC4-stroke" x1="0" y1="0.5" x2="1" y2="1.614565" spreadMethod="pad" gradientUnits="objectBoundingBox" gradientTransform="translate(0 0)"><stop id="erLdtIkpMTC4-stroke-0" offset="0%" stop-color="#8bbccc"/><stop id="erLdtIkpMTC4-stroke-1" offset="100%" stop-color="#8454aa"/></linearGradient><linearGradient id="erLdtIkpMTC5-stroke" x1="0" y1="0.5" x2="1.152948" y2="1.524749" spreadMethod="pad" gradientUnits="objectBoundingBox" gradientTransform="translate(0 0)"><stop id="erLdtIkpMTC5-stroke-0" offset="0%" stop-color="#8bbccc"/><stop id="erLdtIkpMTC5-stroke-1" offset="100%" stop-color="#8454aa"/></linearGradient><linearGradient id="erLdtIkpMTC6-stroke" x1="0" y1="0.5" x2="1.11568" y2="1.38937" spreadMethod="pad" gradientUnits="objectBoundingBox" gradientTransform="translate(0 0)"><stop id="erLdtIkpMTC6-stroke-0" offset="0%" stop-color="#8bbccc"/><stop id="erLdtIkpMTC6-stroke-1" offset="100%" stop-color="#8454aa"/></linearGradient><linearGradient id="erLdtIkpMTC7-fill" x1="0.54292" y1="0.542013" x2="1.234161" y2="1.226335" spreadMethod="pad" gradientUnits="objectBoundingBox" gradientTransform="translate(0 0)"><stop id="erLdtIkpMTC7-fill-0" offset="0%" stop-color="#3f5787"/><stop id="erLdtIkpMTC7-fill-1" offset="100%" stop-color="#8454aa"/></linearGradient><linearGradient id="erLdtIkpMTC8-fill" x1="0.21595" y1="0.305221" x2="0.828461" y2="1.125624" spreadMethod="pad" gradientUnits="objectBoundingBox" gradientTransform="translate(0 0)"><stop id="erLdtIkpMTC8-fill-0" offset="0%" stop-color="#2e4678"/><stop id="erLdtIkpMTC8-fill-1" offset="100%" stop-color="#3f3763"/></linearGradient></defs><path d="M159.89269,232.813278c1.989441,10.215116,2.316977,12.513032,1.989441,18.235852-.102084,1.783642,2.549005,1.783412,4.44676,3.93038-.734016.904517-2.751118,4.027054-3.416137,4.731532-5.234337,5.544914-9.597657,9.119771-17.576155,18.963019-2.898988,3.576545-14.745021,14.275837-14.397551,15.318237.716895,2.150687,6.981184.755802,10.4891.338415c1.120096-.133272,4.52275,2.474837,7.107631.712759c1.30447-.889239,1.937123-2.854985,3.207779-4.215438c2.047936-2.192662,5.463415-4.836198,4.660107-5.281819c3.58405-2.80163,8.12649-8.625414,8.969652-9.25619c4.955021-3.706888,6.619402-7.514593,9.181607-10.41777c2.673942-3.029783,4.793987-5.872367,7.274003-9.060957c1.2206-1.56934,7.361603-1.919548,7.108423-3.438598-.12425-.74552-4.06044-.59832-3.48536-2.32357c0,0,3.87262.77452,3.87262.77452c1.04651-.83721-2.08128-6.53379-2.32357-7.74524-.56798-2.83992,6.082518.347396,9.701215,1.341333" transform="matrix(.992996 0.11815-.11815 0.992996 21.467772-22.160586)" fill="#3f5787" stroke-width="0.6"/><ellipse rx="30" ry="30" transform="matrix(4.683424 0 0 4.683424 150 150)" paint-order="stroke markers fill" fill="rgba(16,41,92,0)" stroke="url(#erLdtIkpMTC3-stroke)"/><path d="M9.49728,150l21.39166-10.21547l19.344135-9.004571L71.6813,120.010849l20.889679-10.488663l19.493301-9.787544l19.325745-9.703415l20.666259-10.376488l19.269883-9.675369l20.498687-10.292351l20.331131-10.208213l22.272656-11.183058" transform="translate(-1.507441 0)" fill="none" stroke="url(#erLdtIkpMTC4-stroke)" stroke-width="6"/><path d="M29.381499,139.78453l40.792359-19.773681L91.063536,22.813291L205.91995,21.663383" transform="translate(.000003 0)" fill="none" stroke="url(#erLdtIkpMTC5-stroke)" stroke-width="2.5" stroke-miterlimit="7"/><path d="M29.381499,139.78453L41.660791,59.687019h148.656623l15.60254-38.023636-15.602539,38.023636-39.76857,19.96772L169.818728,9.49728h-39.936142L110.556842,99.734642h-91.811151" fill="none" stroke="url(#erLdtIkpMTC6-stroke)" stroke-width="2.5"/><path d="M78.212579,24.394034c-12.71467,0-23.351759,9.958466-30.571239,20.271996-2.37447,3.3921-2.35085,7.76353-5.20815,11.02901-3.18075,3.63515-1.9932,22.900467,5.20815,28.995825l6.22307,11.340851v6.278568c7.483562,13.616391-4.924474,38.03835,4.214634,56.745614c24.956904,51.085457,70.631754,112.898888,116.33371,125.372148l7.109817,1.784647c22.647646,16.286597,44.123845,21.768779,68.090611,31.989344c3.081437,1.314071,15.112691,3.956279,17.528658,0c1.121159-1.835962-40.249694-82.601764-40.759601-86.080962.597523,1.067654-36.543904-64.633578-38.682783-67.552358q-.673742-.992261-3.228112-6.915696c-4.205426-9.752137-11.846443-15.392703-22.836649-28.215918-6.148433-7.173902-19.195629-16.101857-26.848513-20.511378-3.169886-1.826463-9.903353.145713-12.465376-3.729347-7.608063-11.507185-12.644581-56.605397-22.797645-69.413925-.336781-.662712-.861838-1.008238-1.208346-1.468087-2.213089-2.936972-2.707133-2.936981-1.268767-1.571183.044835.042573,1.242254,1.502732,1.268767,1.571183c0,0,0,0,0,0s0,0,0,0-1.268221-1.777322-2.707141-2.936972c-2.498045-2.013219-5.738985-6.900784-9.61716-6.900784-3.216155,0-4.466172,0-8.267187,0" transform="matrix(1.122499 0 0 0.822566-5.460727 9.990913)" fill="url(#erLdtIkpMTC7-fill)" stroke-width="0.6"/><path d="M132.861076,96.521877c-41.166226,17.970942-20.855739,46.438026-12.405558,59.459193c10.223845,15.754265,14.619399,21.119365,28.402779,34.902755c7.0345,7.0345,19.101909,11.608045,27.115759,17.436305c7.04922,5.12671,23.496756,9.751741,29.945897,15.69452c4.72859,4.357319,14.768714,12.89508,22.597464,16.11869c14.86722,6.1218,30.017612,21.254275,46.212402,22.726525.27457.02496,19.324292,9.400635,19.675902,8.873225.83635-1.25452-9.512141-16.00286-10.169031-16.75358-9.07014-10.36588-13.115274-19.18086-20.971274-30.96486-19.42353-29.13529-60.912206-97.1445-92.707926-111.98249-7.796216-3.638232-24.182366-13.314661-37.696414-15.379822" transform="translate(.000001 0)" fill="url(#erLdtIkpMTC8-fill)" stroke="#3f5787" stroke-width="0.6"/><path d="M48.01663,79.654739c-5.78959-6.61667-3.14834-13.523319-4.82235-21.893379l-1.023793-1.957601C40.096677,59.432939,20.15128,67.08068,15.46366,69.21142c-.65658.29844-12.416866,2.81631-12.152786,3.47651.72582,1.81454,13.994036.75821,15.552016.63836c10.15044-.7808,21.09681.39186,29.16188,6.44066" fill="#eac308" stroke="rgba(255,255,255,0)" stroke-width="0.6"/></svg>
